<?xml version="1.0" standalone="no"?>
<!DOCTYPE svg PUBLIC "-//W3C//DTD SVG 20010904//EN"
 "http://www.w3.org/TR/2001/REC-SVG-20010904/DTD/svg10.dtd">
<svg version="1.0" xmlns="http://www.w3.org/2000/svg"
 width="237.000000pt" height="237.000000pt" viewBox="0 0 237.000000 237.000000"
 preserveAspectRatio="xMidYMid meet">
<metadata>
Created by potrace 1.16, written by Peter Selinger 2001-2019
</metadata>
<g transform="translate(0.000000,237.000000) scale(0.100000,-0.100000)"
fill="#000000" stroke="none">
<path d="M0 1185 l0 -1185 1185 0 1185 0 0 1185 0 1185 -1185 0 -1185 0 0
-1185z m1617 878 c-18 -30 -275 -477 -295 -510 -13 -24 -27 -45 -32 -48 -5 -3
-34 40 -66 95 -87 155 -61 141 -262 138 l-172 -3 160 -274 160 -274 0 -336 0
-337 -163 -162 c-90 -89 -165 -162 -168 -162 -2 0 -3 203 -1 450 l3 450 -172
298 c-95 163 -193 333 -219 377 -81 137 -170 294 -170 299 0 4 315 6 701 6
385 0 698 -3 696 -7z m543 -333 c0 -13 -667 -1169 -687 -1190 -11 -12 -13 38
-13 311 l0 325 151 259 c83 143 157 270 165 283 14 22 19 22 199 22 119 0 185
-4 185 -10z"/>
</g>
</svg>
