<svg id="Layer_1" enable-background="new 0 0 512 512" height="512" viewBox="0 0 512 512" width="512" xmlns="http://www.w3.org/2000/svg"><g><circle cx="256" cy="256" fill="#97d729" r="256"/><path d="m27.486 54.673h458.774v28.733h-458.774z" fill="#a56941"/><path d="m27.486 54.673h113v28.733h-113z" fill="#965028"/><g><path d="m245.924 219.235h21.898v163.221h-21.898z" fill="#41b4e6"/></g><g><path d="m245.924 219.235h7.522v163.221h-7.522z" fill="#0091c8"/></g><ellipse cx="256.873" cy="428.881" fill="#afe6ff" rx="54.573" ry="68.464"/><path d="m225.026 428.881c0-32.922 18.525-60.407 43.21-66.968-3.666-.974-7.465-1.497-11.363-1.497-30.14 0-54.573 30.653-54.573 68.464s24.433 68.464 54.573 68.464c3.898 0 7.697-.522 11.363-1.497-24.685-6.558-43.21-34.044-43.21-66.966z" fill="#73c8f0"/><path d="m237.06 123.269v94.336c0 6.7 5.431 12.131 12.131 12.131h15.364c6.7 0 12.131-5.431 12.131-12.131v-94.336c0-6.7-5.431-12.131-12.131-12.131h-15.364c-6.7.001-12.131 5.432-12.131 12.131zm19.813 22.304c-5.413 0-9.801-4.388-9.801-9.801s4.388-9.801 9.801-9.801 9.801 4.388 9.801 9.801c0 5.414-4.388 9.801-9.801 9.801z" fill="#fd4755"/><g fill="#e41f2d"><path d="m261.171 125.972c-.708 0-1.393.092-2.058.235 4.396.967 7.688 4.88 7.688 9.566 0 4.687-3.292 8.599-7.688 9.566.665.143 1.35.235 2.058.235 5.413 0 9.801-4.388 9.801-9.801s-4.388-9.801-9.801-9.801z"/><path d="m246.573 217.606v-94.336c0-6.7 5.431-12.131 12.131-12.131h-9.385c-6.7 0-12.131 5.431-12.131 12.131v94.336c0 6.7 5.431 12.131 12.131 12.131h9.385c-6.7-.001-12.131-5.432-12.131-12.131z"/></g><g><path d="m386.698 219.235h21.898v163.221h-21.898z" fill="#41b4e6"/></g><g><path d="m386.698 219.235h6.823v163.221h-6.823z" fill="#0091c8"/></g><path d="m377.834 123.269v94.336c0 6.7 5.431 12.131 12.131 12.131h15.364c6.7 0 12.131-5.431 12.131-12.131v-94.336c0-6.7-5.431-12.131-12.131-12.131h-15.364c-6.7.001-12.131 5.432-12.131 12.131zm19.813 22.304c-5.413 0-9.801-4.388-9.801-9.801s4.388-9.801 9.801-9.801 9.801 4.388 9.801 9.801c0 5.414-4.388 9.801-9.801 9.801z" fill="#55c7a6"/><path d="m427.747 366.882h-60.201c-8.054 0-14.582 6.529-14.582 14.582v94.834c0 8.054 6.529 14.583 14.582 14.583h60.201c8.054 0 14.582-6.529 14.582-14.583v-94.834c.001-8.053-6.528-14.582-14.582-14.582zm-48.349 99.697c0 2.879-2.334 5.214-5.214 5.214s-5.214-2.335-5.214-5.214v-71.441c0-2.879 2.334-5.214 5.214-5.214s5.214 2.335 5.214 5.214zm23.463 0c0 2.879-2.334 5.214-5.214 5.214s-5.214-2.335-5.214-5.214v-71.441c0-2.879 2.334-5.214 5.214-5.214s5.214 2.335 5.214 5.214zm23.462 0c0 2.879-2.334 5.214-5.214 5.214s-5.214-2.335-5.214-5.214v-71.441c0-2.879 2.334-5.214 5.214-5.214s5.214 2.335 5.214 5.214z" fill="#afe6ff"/><path d="m368.606 476.298v-94.834c0-8.054 6.529-14.582 14.582-14.582h-15.642c-8.054 0-14.582 6.529-14.582 14.582v94.834c0 8.054 6.529 14.583 14.582 14.583h15.642c-8.054-.001-14.582-6.529-14.582-14.583z" fill="#73c8f0"/><g><g><path d="m105.15 219.235h21.898v163.221h-21.898z" fill="#41b4e6"/></g><g><path d="m105.15 219.235h6.927v163.221h-6.927z" fill="#0091c8"/></g><path d="m96.286 123.269v94.336c0 6.7 5.431 12.131 12.131 12.131h15.364c6.7 0 12.131-5.431 12.131-12.131v-94.336c0-6.7-5.431-12.131-12.131-12.131h-15.364c-6.7.001-12.131 5.432-12.131 12.131zm19.813 22.304c-5.413 0-9.801-4.388-9.801-9.801s4.388-9.801 9.801-9.801 9.801 4.388 9.801 9.801c0 5.414-4.388 9.801-9.801 9.801z" fill="#ffe65a"/><g><path d="m120.27 125.972c-.708 0-1.393.092-2.058.235 4.396.967 7.688 4.88 7.688 9.566 0 4.687-3.292 8.599-7.688 9.566.665.143 1.35.235 2.058.235 5.413 0 9.801-4.388 9.801-9.801s-4.388-9.801-9.801-9.801z" fill="#6eaa50"/><path d="m105.671 217.606v-94.336c0-6.7 5.431-12.131 12.131-12.131h-9.385c-6.7 0-12.131 5.431-12.131 12.131v94.336c0 6.7 5.431 12.131 12.131 12.131h9.385c-6.7-.001-12.131-5.432-12.131-12.131z" fill="#fac855"/></g><path d="m47.24 379.309c0 38.03 30.829 68.859 68.859 68.859s68.859-30.829 68.859-68.859z" fill="#afe6ff"/><path d="m73.31 379.309h-26.07c0 38.03 30.829 68.859 68.859 68.859 4.458 0 8.812-.439 13.035-1.248-31.795-6.094-55.824-34.039-55.824-67.611z" fill="#73c8f0"/></g><g fill="#1c9585"><path d="m401.655 125.972c-.708 0-1.393.092-2.058.235 4.396.967 7.688 4.88 7.688 9.566 0 4.687-3.292 8.599-7.688 9.566.665.143 1.35.235 2.058.235 5.413 0 9.801-4.388 9.801-9.801-.001-5.413-4.388-9.801-9.801-9.801z"/><path d="m387.056 217.606v-94.336c0-6.7 5.431-12.131 12.131-12.131h-9.385c-6.7 0-12.131 5.431-12.131 12.131v94.336c0 6.7 5.431 12.131 12.131 12.131h9.385c-6.7-.001-12.131-5.432-12.131-12.131z"/></g><g><path d="m397.647 135.435c-2.88 0-5.214-2.335-5.214-5.214v-76.629c0-2.879 2.334-5.214 5.214-5.214s5.214 2.335 5.214 5.214v76.628c-.001 2.88-2.335 5.215-5.214 5.215z" fill="#fff"/></g><g><path d="m256.873 135.435c-2.88 0-5.214-2.335-5.214-5.214v-76.629c0-2.879 2.334-5.214 5.214-5.214s5.214 2.335 5.214 5.214v76.628c0 2.88-2.334 5.215-5.214 5.215z" fill="#fff"/></g><g><path d="m116.099 135.435c-2.88 0-5.214-2.335-5.214-5.214v-76.629c0-2.879 2.334-5.214 5.214-5.214s5.214 2.335 5.214 5.214v76.628c0 2.88-2.334 5.215-5.214 5.215z" fill="#fff"/></g></g></svg>