<svg id="Capa_1" enable-background="new 0 0 512.021 512.021" height="512" viewBox="0 0 512.021 512.021" width="512" xmlns="http://www.w3.org/2000/svg"><g><g><path d="m506.834 321.151c-5.738-11.404-15.612-19.908-27.802-23.944-12.203-4.041-25.202-3.1-36.612 2.651l-84.841 42.842c-6.864-18.091-24.358-30.987-44.814-30.987h-57.143c-22.81-21.621-54.835-33.901-88.951-33.901-21.521 0-45.351 8.709-70.559 18.558v168.527l200.476 37.732 189.719-117.369c11.116-5.808 19.378-15.581 23.305-27.594 3.993-12.215 2.992-25.21-2.778-36.515z" fill="#f0cfa3"/><path d="m312.766 407.731h-129.694v-30h129.693c9.882 0 17.922-8.11 17.922-18.079 0-9.9-8.04-17.955-17.922-17.955h-69.879l-4.445-4.75c-17.339-18.526-43.497-29.151-71.77-29.151-17.632 0-40.004 8.785-65.909 18.958-4.673 1.835-9.432 3.703-14.271 5.562l-10.756-28.006c4.769-1.831 9.457-3.673 14.062-5.481 27.545-10.816 53.563-21.033 76.874-21.033 34.116 0 66.142 12.28 88.951 33.901h57.143c26.424 0 47.922 21.513 47.922 47.955.001 26.511-21.498 48.079-47.921 48.079z" fill="#f1b986"/><path d="m0 276.318h96.113v235.458h-96.113z" fill="#5ca2fa"/><path d="m0 394.048h96.113v117.729h-96.113z" fill="#3d6def"/></g><path d="m441.011 260.245h-170c-33.084 0-60-26.916-60-60s26.916-60 60-60h170c33.084 0 60 26.916 60 60s-26.916 60-60 60z" fill="#e4f3ff"/><path d="m271.011 260.245h170c33.084 0 60-26.916 60-60h-290c0 33.084 26.916 60 60 60z" fill="#c3dafd"/><path d="m441.011 140.245h-85v120h85c33.084 0 60-26.916 60-60s-26.916-60-60-60z" fill="#ff5c5c"/><path d="m356.011 260.245h85c33.084 0 60-26.916 60-60h-145z" fill="#ff3838"/><g><path d="m305.301 153.418c-.05-.037-.102-.073-.151-.111.049.038.1.073.151.111z" fill="#fcf7e2"/><path d="m286.278 133.764c-.007.007-.016.016-.022.023 5.113 7.344 11.274 13.839 18.894 19.521-7.288-5.459-13.656-12.071-18.872-19.544z" fill="#f4d853"/><path d="m307.468 155c.007-.007.017-.016.023-.023-.735-.513-1.473-1.023-2.191-1.559.716.531 1.425 1.065 2.168 1.582z" fill="#f4d853"/><g fill="#fcf7e2"><path d="m424.081 34.393c.029.039.057.079.086.118-.029-.038-.057-.078-.086-.118z"/><path d="m406.728 17.077c.047.034.094.067.14.101-.047-.034-.094-.067-.14-.101z"/><path d="m425.765 36.703c-.52-.746-1.06-1.468-1.598-2.192.541.726 1.057 1.471 1.576 2.214.006-.006.015-.015.022-.022z"/><path d="m424.081 34.393c-4.923-6.604-10.602-12.286-17.214-17.215 6.525 4.888 12.326 10.69 17.214 17.215z"/><path d="m404.551 15.491c-.007.006-.015.015-.021.022.737.515 1.478 1.027 2.198 1.565-.719-.535-1.436-1.071-2.177-1.587z"/></g><g><circle cx="356.011" cy="85.245" fill="#fcf7e2" r="85"/><path d="m404.551 15.491c-11.705 11.705-107.472 107.472-118.295 118.295 5.626 8.08 12.499 15.143 21.212 21.214 10.875-10.875 106.33-106.329 118.297-118.296-5.848-8.394-12.806-15.357-21.214-21.213z" fill="#fbf59a"/></g><path d="m425.743 36.725c-.52-.743-1.035-1.488-1.576-2.214-.029-.039-.057-.08-.086-.118-4.888-6.525-10.689-12.327-17.214-17.215-.046-.034-.093-.067-.14-.101-.721-.538-1.461-1.05-2.198-1.565-13.77-9.61-30.491-15.267-48.519-15.267v63.786 42.426 63.788c46.869 0 85-38.131 85-85 .001-18.028-5.657-34.75-15.267-48.52z" fill="#fbf599"/><path d="m356.011 64.031v42.426c29.679-29.679 62.938-62.938 69.732-69.732-.52-.743-1.035-1.488-1.576-2.214-.029-.039-.057-.08-.086-.118-4.888-6.525-10.689-12.327-17.214-17.215-.046-.034-.093-.067-.14-.101-.721-.538-1.461-1.05-2.198-1.565-5.085 5.086-25.768 25.769-48.518 48.519z" fill="#f4d853"/></g></g></svg>